<?xml version="1.0" standalone="no"?>
<!DOCTYPE svg PUBLIC "-//W3C//DTD SVG 20010904//EN"
 "http://www.w3.org/TR/2001/REC-SVG-20010904/DTD/svg10.dtd">
<svg version="1.0" xmlns="http://www.w3.org/2000/svg"
 width="3000.000000pt" height="3000.000000pt" viewBox="0 0 3000.000000 3000.000000"
 preserveAspectRatio="xMidYMid meet">

<g transform="translate(0.000000,3000.000000) scale(0.100000,-0.100000)"
fill="#000000" stroke="none">
<path d="M15560 22883 c-5 -249 3 -1199 10 -1215 6 -13 24 -45 40 -73 17 -27
35 -59 40 -70 6 -11 24 -42 40 -70 28 -47 55 -100 85 -170 7 -16 27 -60 44
-96 17 -37 31 -69 31 -72 0 -4 11 -31 25 -61 14 -30 25 -61 25 -68 0 -8 4 -18
8 -24 5 -5 24 -56 41 -114 18 -58 38 -114 44 -125 6 -11 14 -38 18 -60 4 -22
15 -67 24 -100 9 -33 20 -82 24 -110 4 -27 13 -63 19 -78 7 -16 12 -45 12 -65
0 -21 5 -53 10 -72 6 -19 13 -62 16 -95 3 -33 8 -71 11 -85 9 -35 10 -54 16
-335 8 -354 -19 -693 -69 -871 -8 -28 -14 -61 -14 -73 0 -12 -7 -46 -16 -74
-8 -29 -20 -70 -25 -92 -6 -22 -17 -61 -24 -86 -8 -26 -15 -56 -15 -67 0 -11
-7 -25 -15 -32 -8 -7 -15 -27 -15 -46 0 -18 -4 -35 -9 -39 -5 -3 -13 -20 -17
-37 -7 -34 -10 -42 -37 -96 -9 -19 -17 -40 -17 -49 0 -8 -6 -27 -14 -41 -7
-15 -19 -40 -26 -57 -22 -53 -42 -100 -50 -115 -5 -8 -23 -44 -40 -80 -17 -36
-35 -72 -41 -80 -5 -8 -23 -43 -40 -77 -17 -34 -37 -68 -45 -74 -8 -6 -14 -18
-14 -26 0 -7 -9 -23 -20 -35 -20 -22 -20 -36 -20 -1774 l0 -1752 33 -5 c38 -6
114 -26 142 -38 11 -4 43 -13 70 -19 97 -22 204 -50 230 -61 18 -8 53 -17 145
-38 87 -21 136 -34 151 -41 9 -5 34 -12 55 -16 22 -3 47 -11 57 -16 10 -5 26
-7 36 -3 21 6 51 66 51 103 1 15 7 38 15 52 8 14 14 36 15 49 0 13 7 44 15 70
7 25 19 66 26 91 6 25 17 63 25 85 8 23 14 52 14 65 1 14 7 36 15 50 8 14 14
37 15 52 0 15 4 37 9 50 5 13 17 50 26 83 43 162 76 275 86 303 5 13 9 31 9
40 0 9 7 30 15 46 8 15 15 40 15 55 0 14 7 35 15 45 8 11 15 34 15 50 0 17 7
40 15 50 8 11 15 32 15 47 0 15 5 31 10 34 6 3 10 19 10 34 0 16 7 34 15 41 8
7 15 23 15 35 0 13 7 36 15 51 8 16 15 39 15 51 0 12 5 25 10 28 6 3 10 16 10
28 0 12 7 35 15 51 8 15 15 36 15 45 0 10 7 26 15 37 8 10 15 27 15 37 0 11 6
31 14 45 8 15 20 47 27 72 7 25 19 54 26 65 7 11 13 29 13 40 0 11 6 29 13 40
8 11 21 46 31 77 10 32 22 60 27 64 5 3 9 12 9 20 0 8 11 37 25 66 14 28 25
55 25 60 0 7 17 45 112 248 98 210 231 460 323 610 12 19 24 42 28 50 13 28
194 297 221 328 11 12 29 37 40 56 19 31 76 105 128 166 12 14 53 63 91 110
117 142 402 418 567 550 149 118 385 281 485 335 26 14 53 29 59 34 14 12 208
111 266 136 25 11 47 22 50 25 10 10 72 40 83 40 11 0 93 31 174 66 17 8 37
14 45 14 7 0 22 6 33 14 11 7 49 21 84 29 36 9 69 21 75 27 5 5 24 10 41 10
17 0 40 7 51 15 10 8 31 15 45 15 15 0 43 7 62 15 20 8 49 15 65 15 15 0 32 4
38 9 5 5 27 11 49 14 22 3 60 10 85 15 62 14 200 39 289 52 219 32 708 35 889
5 39 -7 72 -8 72 -4 0 5 0 831 0 1837 l0 1827 -3125 3 c-1719 1 -3125 -1
-3125 -5z"/>
<path d="M22640 20929 c0 -1742 2 -1960 15 -1949 8 7 15 22 15 34 0 23 23 133
45 211 8 28 19 73 26 100 17 72 117 375 134 407 8 14 15 31 15 37 0 10 12 38
80 186 16 33 31 70 35 82 3 13 12 29 18 35 7 7 29 47 50 88 40 79 69 132 105
190 12 19 31 52 42 73 11 20 25 37 30 37 5 0 12 10 16 23 11 36 246 352 308
413 11 12 32 36 46 54 47 63 245 256 375 366 144 122 210 174 219 174 5 0 37
25 76 60 24 22 52 40 73 46 9 4 17 10 17 15 0 5 8 9 17 9 9 0 24 6 32 13 9 8
59 40 111 71 52 31 102 61 110 66 8 6 36 20 63 32 26 12 47 25 47 30 0 4 9 8
19 8 11 0 22 4 26 9 3 6 27 20 53 32 26 12 55 25 64 30 10 5 27 9 37 9 11 0
22 4 25 9 9 14 85 51 106 51 10 0 22 5 25 10 3 6 14 10 23 10 9 0 30 7 46 15
15 8 34 15 41 15 7 0 18 7 25 15 7 8 27 15 44 15 18 0 37 5 43 11 11 11 48 21
143 38 24 5 46 14 48 20 2 6 18 11 36 11 18 0 36 4 42 9 15 15 295 70 354 71
20 0 41 5 47 11 7 7 56 14 110 17 54 2 103 9 110 14 7 6 14 5 18 -2 5 -8 11
-7 22 2 9 7 30 14 47 15 105 5 764 2 826 -4 41 -3 87 -6 103 -6 15 0 27 -4 27
-8 0 -5 46 -9 103 -9 70 0 109 -4 122 -14 12 -8 62 -16 120 -20 55 -3 132 -11
170 -17 39 -5 81 -10 94 -9 13 0 29 -4 35 -9 6 -5 40 -12 74 -14 35 -3 69 -10
75 -16 6 -6 34 -11 63 -11 32 0 56 -5 63 -14 7 -9 38 -16 74 -19 76 -5 200
-28 207 -37 5 -7 50 -19 145 -40 107 -23 142 -32 160 -40 11 -5 38 -11 60 -15
72 -10 80 -12 95 -18 19 -8 105 -27 150 -34 19 -3 40 -9 45 -13 6 -5 31 -11
58 -15 26 -4 50 -11 53 -16 3 -5 12 -9 20 -9 12 0 14 73 14 510 l0 510 -3315
0 -3315 0 0 -1961z"/>
<path d="M26765 20730 c-2 -3 -76 -7 -164 -8 -117 -2 -167 -6 -188 -17 -16 -9
-56 -15 -94 -15 -47 0 -70 -4 -79 -15 -8 -10 -30 -15 -61 -15 -26 0 -50 -4
-53 -8 -3 -5 -24 -9 -46 -10 -23 -1 -51 -9 -63 -17 -12 -8 -39 -15 -60 -15
-24 0 -40 -5 -43 -15 -4 -9 -19 -15 -40 -15 -22 0 -37 -6 -40 -15 -4 -8 -17
-15 -29 -15 -13 0 -27 -4 -30 -10 -3 -5 -15 -10 -27 -10 -18 0 -49 -13 -98
-41 -8 -5 -22 -12 -30 -15 -8 -3 -38 -17 -65 -30 -28 -13 -55 -24 -62 -24 -6
0 -13 -7 -17 -15 -3 -8 -12 -15 -21 -15 -9 0 -30 -10 -48 -22 -71 -48 -86 -58
-92 -58 -3 0 -38 -24 -78 -53 -39 -30 -77 -56 -83 -58 -17 -6 -200 -175 -265
-244 -110 -117 -149 -162 -149 -170 0 -5 -18 -30 -40 -56 -22 -26 -40 -51 -40
-55 0 -4 -12 -22 -26 -41 -32 -42 -83 -129 -122 -208 -48 -97 -92 -194 -92
-205 0 -6 -4 -18 -10 -28 -15 -28 -68 -194 -76 -237 -4 -22 -10 -44 -14 -50
-4 -5 -10 -28 -13 -50 -4 -22 -14 -89 -24 -150 -28 -181 -19 -664 15 -775 6
-19 18 -71 27 -115 10 -44 21 -88 26 -97 5 -10 9 -28 9 -41 0 -13 7 -32 15
-43 8 -10 15 -30 15 -44 0 -14 7 -34 15 -44 8 -11 15 -27 15 -36 0 -24 177
-368 221 -432 11 -14 19 -28 19 -31 0 -19 159 -344 221 -452 22 -38 44 -79 49
-90 6 -11 20 -36 31 -55 12 -19 35 -60 52 -90 16 -30 40 -73 53 -95 33 -59 64
-114 92 -167 14 -27 28 -48 32 -48 3 0 17 -19 29 -42 12 -24 36 -65 52 -93 16
-27 34 -59 39 -70 6 -11 19 -33 30 -50 11 -16 22 -37 26 -45 3 -8 10 -22 15
-30 5 -8 13 -24 19 -35 5 -11 23 -42 40 -70 16 -27 34 -59 40 -70 5 -11 23
-42 39 -70 16 -27 40 -70 53 -95 13 -25 25 -47 28 -50 3 -3 15 -25 28 -50 13
-25 37 -67 53 -95 16 -27 34 -60 39 -72 5 -11 14 -24 19 -28 6 -3 11 -15 11
-26 0 -11 7 -22 15 -25 8 -4 15 -14 15 -24 0 -11 4 -21 9 -24 5 -3 19 -25 32
-48 30 -57 45 -84 80 -143 16 -27 34 -60 39 -72 5 -11 14 -24 19 -28 6 -3 11
-14 11 -25 0 -10 7 -20 15 -24 8 -3 15 -12 15 -21 0 -8 10 -32 23 -53 13 -20
27 -44 30 -52 4 -8 17 -31 29 -50 19 -31 40 -72 96 -190 9 -19 20 -37 23 -40
6 -5 46 -75 85 -150 11 -19 22 -37 25 -40 3 -3 9 -12 12 -20 4 -8 21 -37 37
-65 17 -27 35 -59 41 -70 5 -11 15 -29 22 -40 7 -11 28 -47 47 -80 19 -33 40
-69 47 -80 7 -11 17 -29 22 -40 6 -11 24 -42 41 -70 16 -27 33 -57 37 -65 4
-8 23 -42 43 -75 20 -33 40 -67 44 -75 4 -8 12 -24 19 -35 7 -11 28 -47 47
-80 19 -33 40 -69 47 -80 7 -11 17 -29 22 -40 6 -11 24 -42 41 -70 16 -27 33
-57 37 -65 3 -8 22 -39 40 -69 19 -30 39 -63 44 -75 5 -12 23 -43 40 -71 16
-27 33 -58 36 -67 3 -10 9 -18 13 -18 5 0 12 -10 16 -22 4 -13 22 -47 41 -77
19 -30 39 -63 44 -75 5 -12 15 -30 21 -41 42 -65 88 -143 88 -149 0 -3 18 -35
40 -70 22 -35 40 -68 40 -75 0 -6 5 -11 10 -11 6 0 10 -5 10 -12 0 -6 20 -44
45 -84 25 -39 45 -77 45 -83 0 -6 5 -11 10 -11 6 0 10 -5 10 -11 0 -7 17 -39
39 -73 21 -34 41 -71 45 -83 4 -13 12 -23 17 -23 5 0 9 -5 9 -11 0 -10 38 -77
88 -154 6 -11 15 -27 19 -35 4 -8 23 -42 43 -75 20 -33 39 -67 43 -75 4 -8 21
-37 37 -65 17 -27 35 -59 40 -70 6 -11 19 -33 30 -50 11 -16 24 -39 30 -50 5
-11 23 -42 40 -70 16 -27 33 -57 37 -65 4 -8 23 -42 43 -75 20 -33 39 -67 43
-75 4 -8 21 -37 37 -65 17 -27 35 -59 40 -70 6 -11 19 -33 29 -50 11 -16 30
-48 42 -70 45 -81 51 -91 69 -120 10 -16 29 -48 41 -70 46 -82 51 -91 69 -120
11 -16 29 -48 40 -70 11 -22 29 -53 40 -70 11 -16 24 -39 30 -50 6 -11 24 -42
40 -70 16 -27 34 -59 40 -70 6 -11 24 -42 40 -70 17 -27 35 -59 40 -70 6 -11
19 -33 29 -50 11 -16 30 -48 42 -70 46 -82 51 -91 69 -120 11 -16 29 -48 40
-70 11 -22 29 -53 40 -70 10 -16 29 -48 41 -70 45 -81 51 -91 69 -120 10 -16
29 -48 41 -70 56 -100 55 -99 112 -191 20 -34 37 -66 37 -70 0 -5 9 -20 20
-34 19 -25 20 16 17 5660 l-2 5685 -35 3 c-19 2 -39 7 -45 12 -5 4 -31 11 -58
15 -26 4 -50 11 -53 16 -3 5 -18 9 -33 9 -16 0 -45 7 -64 15 -20 8 -50 15 -66
15 -16 0 -33 4 -36 10 -3 5 -28 12 -56 16 -27 4 -52 11 -55 15 -3 5 -15 9 -27
9 -12 0 -67 12 -122 26 -55 14 -118 30 -140 35 -67 14 -149 35 -165 42 -8 3
-31 8 -50 11 -19 2 -75 14 -125 25 -112 26 -252 51 -328 58 -31 3 -60 9 -63
14 -3 5 -38 9 -78 9 -53 0 -77 4 -86 15 -9 11 -34 15 -96 15 -46 0 -103 6
-126 14 -28 10 -96 16 -193 17 -82 2 -155 7 -162 11 -6 5 -14 4 -18 -2 -4 -6
-20 -8 -43 -4 -44 8 -173 11 -177 4z"/>
<path d="M21035 17585 c-5 -2 -57 -9 -115 -15 -155 -17 -235 -31 -269 -49 -10
-6 -21 -8 -24 -5 -6 7 -143 -33 -177 -51 -14 -7 -45 -18 -70 -25 -38 -10 -299
-133 -365 -173 -70 -41 -183 -114 -200 -129 -11 -9 -41 -32 -66 -50 -255 -182
-551 -505 -745 -811 -27 -43 -57 -91 -66 -105 -10 -15 -22 -36 -28 -47 -5 -11
-23 -42 -40 -70 -16 -27 -33 -57 -37 -65 -3 -8 -17 -32 -30 -52 -13 -21 -23
-44 -23 -52 0 -7 -7 -19 -15 -26 -8 -7 -15 -20 -15 -30 0 -10 -6 -23 -14 -29
-8 -7 -20 -32 -28 -58 -7 -25 -19 -48 -25 -50 -7 -3 -13 -15 -13 -28 0 -12 -7
-28 -15 -35 -8 -7 -15 -19 -15 -26 0 -7 -12 -39 -26 -71 -14 -32 -32 -74 -41
-93 -8 -19 -21 -48 -29 -63 -8 -16 -14 -35 -14 -43 0 -8 -5 -22 -10 -32 -13
-22 -60 -150 -67 -182 -3 -14 -12 -34 -19 -45 -8 -11 -14 -28 -14 -37 0 -10
-4 -26 -9 -36 -14 -26 -36 -90 -56 -157 -9 -33 -23 -76 -30 -95 -7 -19 -18
-55 -25 -80 -6 -25 -18 -58 -26 -73 -8 -16 -14 -43 -14 -61 0 -18 -5 -37 -11
-43 -6 -6 -15 -29 -20 -50 -18 -82 -34 -142 -42 -149 -4 -4 -7 -21 -7 -39 0
-17 -7 -40 -15 -51 -8 -10 -15 -35 -15 -54 0 -20 -4 -40 -10 -46 -5 -5 -14
-31 -20 -57 -5 -26 -14 -67 -20 -92 -5 -25 -14 -54 -20 -64 -5 -11 -10 -35
-10 -53 0 -19 -6 -42 -14 -53 -7 -11 -16 -36 -19 -55 -3 -19 -13 -64 -22 -100
-9 -36 -20 -84 -24 -108 -5 -24 -13 -48 -19 -54 -36 -36 4 -85 81 -99 85 -16
156 -35 163 -42 4 -4 19 -7 32 -7 14 0 39 -4 56 -9 70 -22 152 -43 171 -45 11
0 27 -5 35 -10 8 -6 32 -13 55 -17 22 -4 96 -21 165 -38 163 -41 162 -41 350
-91 19 -6 85 -21 145 -35 61 -14 137 -32 170 -40 112 -27 408 -86 524 -105 64
-10 132 -21 151 -25 49 -8 87 -13 146 -19 28 -3 80 -9 115 -15 35 -5 89 -10
119 -11 30 -1 80 -3 110 -4 31 -1 60 -5 65 -8 9 -5 410 -4 410 1 0 1 45 4 100
6 55 3 125 9 155 15 30 5 111 19 180 30 68 12 129 25 135 29 5 5 26 11 45 14
44 6 154 39 158 47 1 3 3 1014 5 2248 l2 2242 -21 0 c-12 0 -27 6 -33 14 -6 8
-26 16 -44 19 -18 2 -63 12 -102 22 -107 26 -156 34 -208 34 -27 1 -57 6 -68
12 -15 7 -24 7 -34 -1 -9 -7 -15 -8 -20 0 -6 9 -225 14 -250 5z"/>
<path d="M22640 15220 l0 -1763 27 24 c59 54 177 175 211 218 20 25 42 51 49
56 6 6 25 30 43 55 115 166 126 183 186 295 51 96 62 120 99 210 9 22 20 48
25 57 6 10 10 23 10 29 0 6 6 25 13 42 30 70 77 242 77 283 0 11 3 24 8 28 30
30 55 582 32 716 -7 36 -14 90 -17 120 -2 30 -11 70 -19 88 -8 18 -13 36 -10
40 6 11 -31 153 -44 166 -6 6 -10 20 -10 33 0 27 -50 155 -79 204 -11 19 -23
41 -27 49 -3 8 -10 22 -15 30 -5 8 -12 22 -15 30 -11 32 -83 170 -103 200 -40
58 -61 92 -61 96 0 32 -221 305 -339 419 l-41 39 0 -1764z"/>
<path d="M24693 13568 c-6 -7 -24 -40 -40 -73 -81 -162 -220 -394 -286 -479
-12 -16 -29 -41 -37 -55 -8 -15 -25 -38 -37 -51 -12 -14 -34 -42 -50 -62 -117
-154 -202 -248 -378 -418 -111 -107 -193 -180 -276 -245 -35 -27 -66 -52 -69
-56 -3 -3 -32 -24 -65 -47 -33 -23 -89 -62 -125 -88 -36 -26 -81 -55 -100 -66
-19 -10 -42 -23 -50 -28 -83 -51 -152 -90 -159 -90 -5 0 -11 -4 -13 -8 -5 -13
-337 -172 -358 -172 -7 0 -10 -764 -10 -2260 l0 -2260 2905 0 c1809 0 2905 4
2905 9 0 6 -5 13 -11 16 -5 4 -14 17 -19 28 -5 12 -23 45 -40 72 -16 28 -34
59 -40 70 -6 11 -22 38 -35 60 -14 22 -32 54 -40 70 -9 17 -21 39 -28 49 -44
70 -79 129 -87 148 -6 13 -22 41 -35 63 -14 22 -31 51 -38 65 -6 14 -15 27
-19 30 -4 3 -12 17 -18 30 -5 14 -26 50 -45 80 -19 30 -34 61 -35 68 0 6 -4
12 -9 12 -5 0 -13 9 -16 21 -4 12 -25 51 -47 88 -22 36 -44 73 -49 81 -4 8
-25 44 -46 80 -21 36 -41 72 -45 81 -5 14 -45 80 -86 144 -6 11 -16 29 -21 41
-8 18 -46 82 -89 149 -6 11 -16 29 -22 40 -5 11 -23 43 -40 70 -16 28 -33 57
-37 65 -4 8 -23 42 -43 75 -20 33 -39 67 -43 75 -4 8 -21 38 -37 65 -17 28
-35 59 -40 70 -6 11 -19 34 -29 50 -11 17 -30 48 -42 70 -12 22 -28 51 -36 65
-8 14 -23 39 -33 55 -11 17 -24 39 -30 50 -5 11 -23 43 -40 70 -16 28 -33 57
-37 65 -4 8 -23 42 -43 75 -20 33 -39 67 -43 75 -4 8 -21 38 -37 65 -17 28
-35 59 -40 70 -6 11 -19 34 -30 50 -11 17 -24 39 -30 50 -5 11 -23 43 -40 70
-16 28 -33 57 -37 65 -4 8 -24 43 -45 78 -21 34 -38 67 -38 72 0 6 -4 10 -9
10 -5 0 -14 12 -20 28 -13 34 -52 103 -68 120 -7 7 -13 20 -13 28 0 8 -4 14
-9 14 -5 0 -14 12 -20 28 -13 34 -52 103 -68 120 -7 7 -13 19 -13 27 0 7 -3
15 -7 17 -5 2 -16 18 -25 36 -44 81 -54 97 -65 110 -7 7 -13 19 -13 27 0 7 -3
15 -7 17 -5 2 -16 18 -25 36 -44 81 -54 97 -65 110 -7 7 -13 17 -13 22 0 5
-18 38 -40 72 -22 35 -40 69 -40 76 0 6 -4 12 -10 12 -5 0 -10 5 -10 11 0 6
-20 44 -45 83 -25 40 -45 78 -45 84 0 7 -4 12 -10 12 -5 0 -10 4 -10 10 0 5
-20 43 -45 83 -25 41 -45 80 -45 86 0 6 -3 11 -7 11 -5 0 -13 10 -19 23 -23
49 -59 112 -66 115 -5 2 -8 8 -8 14 0 6 -17 38 -39 72 -21 34 -41 71 -45 84
-4 12 -12 22 -17 22 -5 0 -9 4 -9 10 0 8 -55 106 -90 160 -6 8 -14 24 -20 35
-5 11 -23 43 -40 70 -16 28 -33 57 -37 65 -4 8 -23 42 -43 75 -20 33 -40 67
-44 75 -4 8 -12 24 -19 35 -7 11 -28 47 -47 80 -19 33 -40 69 -47 80 -7 11
-17 29 -22 40 -6 11 -24 43 -41 70 -16 28 -33 57 -37 65 -4 8 -24 43 -45 78
-21 34 -38 64 -38 67 0 4 -67 119 -90 155 -6 8 -13 22 -17 30 -4 8 -24 43 -45
78 -21 34 -38 64 -38 67 0 3 -18 34 -40 70 -22 36 -40 70 -40 75 0 6 -4 10 -9
10 -5 0 -13 10 -17 22 -3 12 -24 50 -45 85 -22 35 -39 68 -39 73 0 6 -4 10 -8
10 -4 0 -13 14 -19 30 -12 32 -25 38 -40 18z"/>
<path d="M15560 11460 c0 -568 3 -1031 6 -1027 6 6 47 116 65 172 5 17 13 39
17 50 13 29 29 75 69 200 19 61 39 119 43 130 5 11 16 47 25 80 9 33 21 68 26
77 5 10 9 28 9 41 0 13 7 32 15 43 8 10 15 30 15 43 0 21 12 64 42 156 5 17
12 43 14 60 2 16 9 34 14 39 6 6 10 22 10 37 0 15 7 43 15 62 8 20 15 49 15
65 0 15 7 37 15 48 8 10 15 30 15 43 0 14 4 38 9 55 22 75 40 143 45 166 2 14
9 39 14 55 13 36 52 198 59 241 3 18 0 34 -9 40 -7 6 -58 20 -113 33 -55 13
-110 27 -123 32 -13 5 -34 9 -48 9 -13 0 -32 4 -42 9 -24 12 -100 32 -147 38
-22 3 -48 12 -57 21 -17 14 -18 -35 -18 -1018z"/>
<path d="M17581 11891 c-12 -16 -25 -49 -30 -73 -5 -24 -17 -70 -26 -103 -9
-33 -20 -79 -25 -103 -5 -23 -14 -51 -20 -61 -5 -11 -10 -33 -10 -49 0 -16 -3
-32 -7 -36 -5 -4 -13 -29 -20 -54 -6 -26 -19 -74 -28 -107 -9 -33 -20 -76 -25
-95 -22 -85 -49 -182 -86 -305 -8 -27 -17 -61 -20 -75 -3 -14 -9 -34 -14 -45
-5 -11 -13 -38 -18 -60 -6 -22 -18 -65 -27 -95 -9 -30 -20 -68 -25 -85 -11
-41 -31 -97 -41 -117 -5 -10 -9 -28 -9 -41 0 -12 -6 -31 -14 -42 -7 -11 -16
-33 -18 -50 -6 -31 -25 -88 -39 -117 -5 -10 -9 -23 -9 -29 0 -6 -6 -25 -14
-42 -8 -18 -16 -41 -19 -52 -3 -11 -20 -58 -37 -105 -17 -47 -34 -96 -37 -110
-3 -14 -10 -31 -16 -38 -6 -7 -19 -39 -29 -70 -10 -31 -23 -66 -28 -77 -5 -11
-21 -49 -36 -85 -14 -36 -32 -78 -39 -95 -32 -71 -64 -143 -85 -190 -56 -127
-211 -428 -222 -433 -5 -2 -8 -11 -8 -20 0 -8 -6 -23 -14 -31 -7 -9 -28 -43
-46 -76 -18 -33 -50 -86 -71 -119 -22 -32 -39 -60 -39 -63 0 -2 -30 -48 -67
-101 -37 -53 -76 -110 -87 -127 -48 -69 -152 -201 -173 -220 -13 -11 -23 -24
-23 -29 0 -11 -144 -168 -297 -325 l-122 -124 -1 -251 -1 -251 3125 0 3126 0
0 2123 c0 1167 0 2126 0 2131 0 6 -13 6 -32 0 -35 -9 -204 -36 -278 -44 -25
-2 -81 -8 -125 -12 -91 -9 -761 -9 -845 0 -30 3 -97 8 -148 11 -51 3 -97 8
-102 11 -8 5 -63 11 -170 19 -25 2 -52 6 -60 10 -8 3 -55 10 -105 15 -49 6
-126 17 -170 25 -44 8 -118 22 -165 30 -47 8 -123 22 -170 31 -47 10 -101 20
-120 22 -19 3 -39 9 -45 13 -5 4 -39 11 -75 15 -36 4 -69 11 -75 15 -5 4 -26
10 -45 13 -48 8 -142 28 -160 35 -20 7 -113 30 -170 42 -25 5 -81 19 -125 30
-44 12 -98 25 -120 30 -64 14 -263 67 -345 93 -19 6 -51 14 -70 18 -35 8 -195
50 -260 70 -19 5 -60 17 -90 25 -30 9 -69 20 -86 25 -45 13 -51 12 -73 -20z"/>
</g>
</svg>
